<svg xmlns="http://www.w3.org/2000/svg" width="8" height="5"><defs><filter id="a" width="200%" height="200%" x="-50%" y="-50%"><feGaussianBlur in="SourceGraphic" result="FeGaussianBlur1217Out" stdDeviation="6.5 6.5"/></filter><filter id="d" width="200%" height="200%" x="-50%" y="-50%"><feGaussianBlur in="SourceGraphic" result="FeGaussianBlur1224Out" stdDeviation="0 0"/></filter><mask id="b"><path fill="#fff" d="M4 5.01L-.01 1.108 1.136-.006 4 2.78 6.864-.006 8.01 1.108 4.573 4.453z"/></mask><mask id="e"><path fill="#fff" d="M4 5.01L-.01 1.108 1.136-.006 4 2.78 6.864-.006 8.01 1.108 4.573 4.453z"/></mask><linearGradient id="c" x1="4.01" x2="3.99" y1="5.01" y2="-.01" gradientUnits="userSpaceOnUse"><stop offset="0" stop-opacity=".96"/><stop offset=".5" stop-color="#d0d0d0" stop-opacity=".96"/><stop offset="1" stop-color="#9e9e9e" stop-opacity=".96"/></linearGradient></defs><path fill="#fff" fill-opacity=".24" d="M-13 18v-31h34v31zM4.573 4.452L8.01 1.109 6.864-.006 4 2.78 1.136-.006-.01 1.108 4 5.01z" filter="url(#a)" mask="url(&quot;#b&quot;)"/><path fill="#bb9c66" d="M4 5.01L-.01 1.108 1.136-.006 4 2.78 6.864-.006 8.01 1.108 4.573 4.453z"/><path fill="url(#c)" d="M4 5.01L-.01 1.108 1.136-.006 4 2.78 6.864-.006 8.01 1.108 4.573 4.453z"/><path fill="#fff" fill-opacity=".24" d="M-13 18v-31h34v31zM4.573 4.452L8.01 1.109 6.864-.006 4 2.78 1.136-.006-.01 1.108 4 5.01z" filter="url(#a)" mask="url(&quot;#b&quot;)"/><path fill="#fff1d8" fill-opacity=".44" d="M0 6V2.118L3.99 6zm0-7h8v3.099L6.864.994 4 3.78 1.136.994 0 2.099zm8 7H4.01l.563-.548L8 2.119zm.01-3.892L8 2.098v.02zm-8.02 0l.01.01v-.02zM4 6.01L4.01 6h-.02z" filter="url(#d)" mask="url(&quot;#e&quot;)"/></svg>