<svg width="26" height="26" xmlns="http://www.w3.org/2000/svg" xmlns:xlink="http://www.w3.org/1999/xlink" xmlns:svgjs="http://svgjs.com/svgjs" viewBox="538 1150 26 26"><svg width="26" height="26" xmlns="http://www.w3.org/2000/svg" xmlns:xlink="http://www.w3.org/1999/xlink" xmlns:svgjs="http://svgjs.com/svgjs" fill="#1c242a" x="538" y="1150"><svg xmlns="http://www.w3.org/2000/svg" xmlns:xlink="http://www.w3.org/1999/xlink" width="26" height="26" viewBox="1.007 1.007 24.986 24.986"><path paint-order="stroke fill markers" fill-rule="evenodd" d="M13.5 1.007L25.993 13.5 13.5 25.993 1.007 13.5 13.5 1.007z"/></svg></svg><svg width="15" height="9" xmlns="http://www.w3.org/2000/svg" xmlns:xlink="http://www.w3.org/1999/xlink" xmlns:svgjs="http://svgjs.com/svgjs" viewBox="0 0.214 15 8.571" fill="#fff" x="543" y="1159"><svg xmlns="http://www.w3.org/2000/svg" width="15" height="9" viewBox="1 1.001 14 8"><path paint-order="stroke fill markers" fill-rule="evenodd" d="M8 1c3.866 0 7 4 7 4s-3.134 4-7 4-7-4-7-4 3.134-4 7-4zm0 .667C11.093 1.667 13.6 5 13.6 5S11.093 8.334 8 8.334C4.907 8.334 2.4 5 2.4 5S4.907 1.667 8 1.667zm0 .134c1.718 0 3.111 1.432 3.111 3.2 0 1.767-1.393 3.2-3.11 3.2-1.72 0-3.112-1.433-3.112-3.2 0-1.768 1.393-3.2 3.111-3.2z"/></svg></svg></svg>