<svg width="26" height="26" xmlns="http://www.w3.org/2000/svg" xmlns:xlink="http://www.w3.org/1999/xlink" xmlns:svgjs="http://svgjs.com/svgjs" viewBox="738 1150 26 26"><svg width="26" height="26" xmlns="http://www.w3.org/2000/svg" xmlns:xlink="http://www.w3.org/1999/xlink" xmlns:svgjs="http://svgjs.com/svgjs" fill="#1c242a" x="738" y="1150"><svg xmlns="http://www.w3.org/2000/svg" xmlns:xlink="http://www.w3.org/1999/xlink" width="26" height="26" viewBox="1.007 1.007 24.986 24.986"><path paint-order="stroke fill markers" fill-rule="evenodd" d="M13.5 1.007L25.993 13.5 13.5 25.993 1.007 13.5 13.5 1.007z"/></svg></svg><svg width="11" height="14" xmlns="http://www.w3.org/2000/svg" xmlns:xlink="http://www.w3.org/1999/xlink" xmlns:svgjs="http://svgjs.com/svgjs" viewBox="0.096 0 10.809 14" fill="#fff" x="746" y="1155"><svg xmlns="http://www.w3.org/2000/svg" width="11" height="14" viewBox="1 1.001 10.093 13.073"><path paint-order="stroke fill markers" fill-rule="evenodd" d="M4.42 7.501c1.89 0 4.105-.619 4.105 1.625C8.525 11.37 6.994 14 5.105 14 3.215 14 1 11.37 1 9.126S2.532 7.5 4.42 7.5zM1.685 3.438c.378 0 .684.364.684.813v4.875c0 .449-.306.812-.684.812-.377 0-.684-.363-.684-.812V4.25c0-.449.307-.813.684-.813zm2.053-1.624c.377 0 .684.363.684.812v6.5c0 .449-.307.812-.684.812-.378 0-.685-.363-.685-.812v-6.5c0-.449.307-.812.685-.812zM5.789 1c.378 0 .684.364.684.813v7.312c0 .449-.306.812-.684.812-.378 0-.684-.363-.684-.812V1.814c0-.45.306-.813.684-.813zM7.84 2.626c.378 0 .684.364.684.812v5.688c0 .449-.306.812-.684.812-.378 0-.684-.363-.684-.812V3.438c0-.448.306-.812.684-.812zM5 9.001l3.231-.367c.4-.475 2.367-2.11 2.768-1.633.4.476-.6 2.524-1 3l-3 4c-.4.476-1.6-1.524-2-2-.4-.476-.4-2.524 0-3z"/></svg></svg></svg>