<svg xmlns="http://www.w3.org/2000/svg" width="8" height="5"><defs><filter id="a" width="200%" height="200%" x="-50%" y="-50%"><feGaussianBlur in="SourceGraphic" result="FeGaussianBlur1179Out" stdDeviation="6.5 6.5"/></filter><filter id="d" width="200%" height="200%" x="-50%" y="-50%"><feGaussianBlur in="SourceGraphic" result="FeGaussianBlur1186Out" stdDeviation="0 0"/></filter><mask id="b"><path fill="#fff" d="M1.136 5.006L-.01 3.892 4-.01l1.146 1.114L8.01 3.892 6.864 5.006 4 2.22z"/></mask><mask id="e"><path fill="#fff" d="M1.136 5.006L-.01 3.892 4-.01l1.146 1.114L8.01 3.892 6.864 5.006 4 2.22z"/></mask><linearGradient id="c" x1="4.01" x2="3.99" y1="5.01" y2="-.01" gradientUnits="userSpaceOnUse"><stop offset="0" stop-opacity=".96"/><stop offset=".5" stop-color="#d0d0d0" stop-opacity=".96"/><stop offset="1" stop-color="#9e9e9e" stop-opacity=".96"/></linearGradient></defs><path fill="#fff" fill-opacity=".24" d="M-13 18v-31h34v31zM4 2.22l2.864 2.786L8.01 3.892 5.146 1.105 4-.01-.01 3.892l1.146 1.114z" filter="url(#a)" mask="url(&quot;#b&quot;)"/><path fill="#bb9c66" d="M1.136 5.006L-.01 3.892 4-.01l1.146 1.114L8.01 3.892 6.864 5.006 4 2.22z"/><path fill="url(#c)" d="M1.136 5.006L-.01 3.892 4-.01l1.146 1.114L8.01 3.892 6.864 5.006 4 2.22z"/><path fill="#fff" fill-opacity=".24" d="M-13 18v-31h34v31zM4 2.22l2.864 2.786L8.01 3.892 5.146 1.105 4-.01-.01 3.892l1.146 1.114z" filter="url(#a)" mask="url(&quot;#b&quot;)"/><path fill="#fff1d8" fill-opacity=".44" d="M0 6V4.901L1.13 6zm0-7h8v5.882L5.146 2.105 4 .99 0 4.882zm8 7H6.87L8 4.902zM4 3.22L6.858 6H1.142zm2.864 2.786L6.871 6h-.013zM8.01 4.892L8 4.882v.02zm-8.02 0l.01.01v-.02zm1.146 1.114L1.142 6H1.13z" filter="url(#d)" mask="url(&quot;#e&quot;)"/></svg>